<svg width="24" height="24" viewBox="0 0 24 24" fill="none" xmlns="http://www.w3.org/2000/svg">
<circle cx="12" cy="12" r="11.3" stroke="#9B9B9B" stroke-width="1.4"/>
<path d="M12.5264 14.0674H11.002C11.0065 13.6436 11.043 13.2881 11.1113 13.001C11.1797 12.7093 11.2936 12.445 11.4531 12.208C11.6172 11.971 11.8337 11.7204 12.1025 11.4561C12.3122 11.2555 12.5013 11.0664 12.6699 10.8887C12.8385 10.7064 12.973 10.515 13.0732 10.3145C13.1735 10.1094 13.2236 9.87467 13.2236 9.61035C13.2236 9.32324 13.1758 9.07943 13.0801 8.87891C12.9844 8.67839 12.8431 8.52572 12.6562 8.4209C12.474 8.31608 12.2461 8.26367 11.9727 8.26367C11.7448 8.26367 11.5306 8.30924 11.3301 8.40039C11.1296 8.48698 10.9678 8.6237 10.8447 8.81055C10.7217 8.99284 10.6556 9.23438 10.6465 9.53516H8.99902C9.00814 8.96094 9.14486 8.47786 9.40918 8.08594C9.6735 7.69401 10.029 7.40007 10.4756 7.2041C10.9222 7.00814 11.4212 6.91016 11.9727 6.91016C12.5833 6.91016 13.1051 7.01497 13.5381 7.22461C13.971 7.42969 14.3014 7.73047 14.5293 8.12695C14.7617 8.51888 14.8779 8.99284 14.8779 9.54883C14.8779 9.94987 14.7982 10.3145 14.6387 10.6426C14.4792 10.9661 14.2718 11.2692 14.0166 11.5518C13.7614 11.8298 13.4857 12.1077 13.1895 12.3857C12.9342 12.6182 12.7611 12.8711 12.6699 13.1445C12.5788 13.4134 12.5309 13.721 12.5264 14.0674ZM10.8652 16.2002C10.8652 15.9541 10.9495 15.7467 11.1182 15.5781C11.2868 15.4049 11.5169 15.3184 11.8086 15.3184C12.1003 15.3184 12.3304 15.4049 12.499 15.5781C12.6676 15.7467 12.752 15.9541 12.752 16.2002C12.752 16.4463 12.6676 16.6559 12.499 16.8291C12.3304 16.9977 12.1003 17.082 11.8086 17.082C11.5169 17.082 11.2868 16.9977 11.1182 16.8291C10.9495 16.6559 10.8652 16.4463 10.8652 16.2002Z" fill="#9B9B9B"/>
</svg>
