<svg width="28" height="28" viewBox="0 0 28 28" fill="none" xmlns="http://www.w3.org/2000/svg">
<rect width="28" height="28" rx="6" fill="#9B9B9B"/>
<path fill-rule="evenodd" clip-rule="evenodd" d="M14.1779 5.00011C19.4761 5.07501 23.8229 9.8219 26 13.9062C26 13.9062 25.2339 15.4685 24.5153 16.4686C24.1676 16.9525 23.8018 17.4238 23.4175 17.8797C23.1434 18.2042 22.8603 18.5203 22.5667 18.8273C19.9426 21.5735 16.1741 23.6222 12.1947 22.8268C7.77377 21.943 4.16761 18.1683 2 14.1084C2 14.1084 2.76964 12.5446 3.49217 11.546C3.81586 11.0981 4.15558 10.6622 4.51134 10.2393C4.78392 9.91527 5.06652 9.59921 5.35864 9.29213C7.67706 6.85753 10.6519 4.98314 14.1779 5.00011ZM14.1593 6.99733C11.2081 6.98635 8.75385 8.62856 6.81223 10.6672C6.54816 10.9443 6.29362 11.2299 6.0471 11.5225C5.72291 11.908 5.41325 12.3059 5.11813 12.7139C4.823 13.1213 4.52036 13.6356 4.28035 14.0725C6.19141 17.2725 9.06 20.163 12.589 20.8685C15.8775 21.5261 18.9465 19.7196 21.1151 17.4503C21.3802 17.1732 21.6362 16.8871 21.8838 16.594C22.2345 16.178 22.5682 15.7481 22.8854 15.3063C23.179 14.8973 23.4811 14.382 23.7207 13.9447C21.7374 10.6368 18.3442 7.06224 14.1593 6.99733Z" fill="white"/>
<path fill-rule="evenodd" clip-rule="evenodd" d="M14.0004 10.004C16.2176 10.004 18.018 11.798 18.018 14.007C18.018 16.2164 16.2176 18.0099 14.0004 18.0099C11.7837 18.0099 9.9834 16.2164 9.9834 14.007C9.9834 11.798 11.7837 10.004 14.0004 10.004ZM14.0004 12.0057C15.1093 12.0057 16.0092 12.9025 16.0092 14.007C16.0092 15.1119 15.1093 16.0087 14.0004 16.0087C12.8921 16.0087 11.9922 15.1119 11.9922 14.007C11.9922 12.9025 12.8921 12.0057 14.0004 12.0057Z" fill="white"/>
</svg>
