<svg width="24" height="18" viewBox="0 0 24 18" fill="none" xmlns="http://www.w3.org/2000/svg">
<path fill-rule="evenodd" clip-rule="evenodd" d="M12.1779 0.000114402C17.4761 0.07501 21.8229 4.8219 24 8.90621C24 8.90621 23.2339 10.4685 22.5153 11.4686C22.1676 11.9525 21.8018 12.4238 21.4175 12.8797C21.1434 13.2042 20.8603 13.5203 20.5667 13.8273C17.9426 16.5735 14.1741 18.6222 10.1947 17.8268C5.77377 16.943 2.16761 13.1683 0 9.10842C0 9.10842 0.769636 7.5446 1.49217 6.54599C1.81586 6.09812 2.15558 5.66223 2.51134 5.23931C2.78392 4.91527 3.06652 4.59921 3.35864 4.29213C5.67706 1.85753 8.65189 -0.0168619 12.1779 0.000114402ZM12.1593 1.99733C9.20807 1.98635 6.75385 3.62856 4.81223 5.66722C4.54817 5.94433 4.29362 6.22993 4.0471 6.52253C3.72291 6.90799 3.41325 7.30593 3.11813 7.71387C2.823 8.1213 2.52036 8.63558 2.28035 9.07247C4.19141 12.2725 7.06 15.163 10.589 15.8685C13.8775 16.5261 16.9465 14.7196 19.1151 12.4503C19.3802 12.1732 19.6362 11.8871 19.8838 11.594C20.2345 11.178 20.5682 10.7481 20.8854 10.3063C21.179 9.89732 21.4811 9.38204 21.7207 8.94465C19.7374 5.63676 16.3442 2.06224 12.1593 1.99733Z" fill="#9B9B9B"/>
<path fill-rule="evenodd" clip-rule="evenodd" d="M12.0004 5.00403C14.2176 5.00403 16.018 6.79803 16.018 9.00695C16.018 11.2164 14.2176 13.0099 12.0004 13.0099C9.78372 13.0099 7.9834 11.2164 7.9834 9.00695C7.9834 6.79803 9.78372 5.00403 12.0004 5.00403ZM12.0004 7.00574C13.1093 7.00574 14.0092 7.90249 14.0092 9.00695C14.0092 10.1119 13.1093 11.0087 12.0004 11.0087C10.8921 11.0087 9.99217 10.1119 9.99217 9.00695C9.99217 7.90249 10.8921 7.00574 12.0004 7.00574Z" fill="#9B9B9B"/>
</svg>
