<svg width="24" height="24" viewBox="0 0 24 24" fill="none" xmlns="http://www.w3.org/2000/svg">
<g clip-path="url(#clip0_103_5147)">
<mask id="mask0_103_5147" style="mask-type:luminance" maskUnits="userSpaceOnUse" x="0" y="0" width="24" height="24">
<path d="M12 24C18.6274 24 24 18.6274 24 12C24 5.37258 18.6274 0 12 0C5.37258 0 0 5.37258 0 12C0 18.6274 5.37258 24 12 24Z" fill="white"/>
</mask>
<g mask="url(#mask0_103_5147)">
<path d="M36 11.9641C36 15.5641 36 19.2121 36 22.8361C35.9624 23.3238 35.7429 23.7795 35.385 24.1129C35.0272 24.4463 34.5571 24.633 34.068 24.6361C33.948 24.6361 33.816 24.6361 33.696 24.6361H-9.69598C-10.0711 24.6721 -10.4492 24.611 -10.7938 24.4587C-11.1385 24.3063 -11.4382 24.0678 -11.664 23.7661C-11.8761 23.49 -11.9957 23.1541 -12.006 22.8061C-12.006 19.1821 -12.006 15.5581 -12.006 11.9341C-11.8717 11.8233 -11.6994 11.7695 -11.526 11.7841C-11.364 11.7841 -11.208 11.7841 -11.052 11.7841H35.04C35.364 11.8141 35.706 11.7301 36 11.9641Z" fill="#FDCE24"/>
<path d="M36 11.9641H-12C-12 8.3641 -12 4.7221 -12 1.0981C-11.9945 0.861702 -11.9426 0.628694 -11.847 0.412389C-11.7515 0.196084 -11.6143 0.000721335 -11.4432 -0.162537C-11.2722 -0.325795 -11.0706 -0.453748 -10.8501 -0.539088C-10.6296 -0.624427 -10.3944 -0.665479 -10.158 -0.659899C4.614 -0.659899 19.386 -0.659899 34.158 -0.659899C34.6332 -0.663383 35.0911 -0.48188 35.4349 -0.153787C35.7787 0.174307 35.9813 0.62326 36 1.0981C36 4.7221 36 8.3401 36 11.9641Z" fill="#347FC0"/>
</g>
</g>
<rect x="0.5" y="0.5" width="23" height="23" rx="11.5" stroke="#9B9B9B"/>
<defs>
<clipPath id="clip0_103_5147">
<rect width="24" height="24" rx="12" fill="white"/>
</clipPath>
</defs>
</svg>
