<svg width="24" height="24" viewBox="0 0 24 24" fill="none" xmlns="http://www.w3.org/2000/svg">
<g clip-path="url(#clip0_103_5156)">
<mask id="mask0_103_5156" style="mask-type:luminance" maskUnits="userSpaceOnUse" x="0" y="0" width="24" height="24">
<path d="M12 24C18.6274 24 24 18.6274 24 12C24 5.37258 18.6274 0 12 0C5.37258 0 0 5.37258 0 12C0 18.6274 5.37258 24 12 24Z" fill="white"/>
</mask>
<g mask="url(#mask0_103_5156)">
<path d="M48.282 11.9998C48.282 16.1758 48.282 20.3558 48.282 24.5398C48.282 24.7198 48.228 24.7738 47.856 24.7738H0.113994C-0.240006 24.7738 -0.294006 24.7258 -0.294006 24.5518C-0.282006 16.1838 -0.282006 7.81583 -0.294006 -0.55217C-0.294006 -0.72017 -0.252006 -0.77417 0.107994 -0.77417C16.044 -0.77417 31.978 -0.77417 47.91 -0.77417C48.24 -0.77417 48.294 -0.73817 48.294 -0.57017C48.282 3.62183 48.278 7.81183 48.282 11.9998Z" fill="white"/>
<path d="M5.57997 17.1899C5.25597 17.1899 5.20197 17.5919 5.15997 17.7119C4.97397 18.2639 4.48797 18.5999 4.35597 19.1999C4.35597 19.2318 4.34333 19.2623 4.32083 19.2848C4.29832 19.3073 4.2678 19.3199 4.23597 19.3199C4.20415 19.3199 4.17363 19.3073 4.15112 19.2848C4.12862 19.2623 4.11597 19.2318 4.11597 19.1999C4.00197 18.6479 3.55797 18.2759 3.34797 17.7719C3.12072 17.4257 2.92014 17.0626 2.74797 16.6859C2.32797 17.6099 1.71597 18.3239 1.36797 19.1939C1.32597 19.2839 1.16397 19.3259 1.14597 19.1939C1.08597 18.8099 0.791974 18.5939 0.623974 18.2579C0.439761 17.8828 0.23132 17.52 -2.5779e-05 17.1719C-0.0774456 17.0544 -0.118707 16.9167 -0.118707 16.7759C-0.118707 16.6352 -0.0774456 16.4975 -2.5779e-05 16.3799C0.221974 16.0019 0.419974 15.5999 0.647974 15.2159C0.707974 15.1079 0.791974 15.0419 0.839974 15.1439C0.989974 15.4739 1.21197 15.7439 1.39197 16.0619C1.41201 16.0917 1.42299 16.1267 1.42359 16.1626C1.42419 16.1985 1.41438 16.2338 1.39534 16.2643C1.37631 16.2947 1.34887 16.319 1.31633 16.3342C1.28379 16.3494 1.24754 16.3549 1.21197 16.3499C1.06197 16.3499 0.875974 16.3079 0.893974 16.5659C0.893974 16.6859 0.959974 16.7579 1.06797 16.7399C1.17597 16.7219 1.49997 16.8719 1.61397 16.6199C1.7533 16.3452 1.91168 16.0805 2.08797 15.8279C2.26797 15.5159 1.84797 15.3599 1.74597 15.1079C1.58397 14.7179 1.32597 14.3699 1.14597 13.9919C1.04997 13.7819 0.785974 13.6919 0.785974 13.3919C0.635974 13.8119 0.245974 14.0699 0.185974 14.5079C0.185596 14.5276 0.180826 14.5469 0.172013 14.5645C0.1632 14.5821 0.150567 14.5975 0.135039 14.6096C0.11951 14.6217 0.101478 14.6301 0.0822622 14.6343C0.0630459 14.6385 0.0431311 14.6384 0.0239742 14.6339C-0.0840258 14.6339 -0.0780258 14.5319 -0.0780258 14.4539C-0.122268 14.1876 -0.111557 13.9149 -0.0465522 13.6529C0.018453 13.3908 0.136379 13.1448 0.299974 12.9299C0.510249 12.6374 0.693027 12.3261 0.845974 11.9999C0.983974 11.7779 0.683974 11.4959 0.611974 11.4299C0.275974 11.1599 0.239974 10.7339 -2.5779e-05 10.4279C-0.240026 10.1219 -0.0900258 9.64193 -0.0360258 9.22793C-0.0360258 9.11393 0.161974 9.16193 0.167974 9.22793C0.167974 9.71393 0.707974 9.95393 0.725974 10.5059C1.04524 10.0203 1.33768 9.51754 1.60197 8.99993C1.67997 8.82593 1.96197 8.79593 1.88997 8.52593C1.84797 8.34593 2.27997 8.31593 2.11797 8.09393C1.91313 7.80068 1.72484 7.4962 1.55397 7.18193C1.47597 7.04993 1.10397 7.04393 0.953974 7.18193C0.803974 7.31993 0.887974 7.48193 1.13997 7.51193C1.51797 7.54793 1.48197 7.69793 1.26597 7.94993C1.11646 8.15669 0.991615 8.3802 0.893974 8.61593C0.857974 8.68793 0.893974 8.77793 0.761974 8.77193C0.629974 8.76593 0.683974 8.65793 0.647974 8.60393C0.401974 8.25593 0.269974 7.84793 -2.5779e-05 7.51793C-0.0847298 7.40514 -0.134435 7.26994 -0.142968 7.12914C-0.151502 6.98834 -0.118488 6.84813 -0.0480258 6.72593C0.30319 6.20956 0.616031 5.66811 0.887974 5.10593C0.947974 4.94993 1.16397 4.87793 1.16997 4.64393C1.16997 4.53593 1.34397 4.56593 1.37397 4.64393C1.60797 5.32193 2.15397 5.84393 2.39397 6.50393C2.45997 6.68993 2.72397 6.79193 2.72997 7.06193C2.99997 6.59993 3.34197 6.17393 3.59997 5.68793C3.76797 5.33993 4.06797 5.08793 4.12797 4.66793C4.12797 4.57793 4.30797 4.52393 4.34397 4.63193C4.52997 5.13593 4.90797 5.53193 5.11197 6.01193C5.21997 6.25193 5.52597 6.35993 5.51397 6.67793C5.59197 6.38393 5.78397 6.07793 5.46597 5.83193C5.4362 5.81269 5.41071 5.78752 5.39109 5.75799C5.37148 5.72847 5.35816 5.69521 5.35196 5.66031C5.34577 5.6254 5.34684 5.58959 5.3551 5.55512C5.36336 5.52064 5.37863 5.48824 5.39997 5.45993C5.51177 5.262 5.57594 5.04076 5.58739 4.81372C5.59885 4.58669 5.55728 4.36011 5.46597 4.15193C5.46597 4.46393 5.10597 4.57193 5.08197 4.88393C5.08554 4.91222 5.07838 4.94082 5.06191 4.96409C5.04543 4.98736 5.02083 5.00361 4.99296 5.00963C4.9651 5.01566 4.93598 5.01102 4.91136 4.99664C4.88674 4.98226 4.86841 4.95917 4.85997 4.93193C4.7232 4.61549 4.55431 4.31391 4.35597 4.03193C4.21797 3.77393 4.64997 3.64793 4.64397 3.35993C4.64397 3.29993 4.81797 3.16193 4.84797 2.99993C4.87797 2.83793 5.06997 2.85593 5.06997 2.99993C5.06997 3.33593 5.48397 3.42593 5.47797 3.76193C5.54397 3.32393 5.75397 2.89193 5.42997 2.48393C5.32797 2.35193 5.28597 2.20793 5.42997 2.11193C5.75997 1.79993 5.56797 1.52993 5.51397 1.19993C5.26797 1.79993 4.79997 2.21393 4.60197 2.79593C4.55397 2.93993 4.34997 3.01193 4.34397 3.23393C4.33797 3.45593 4.13997 3.33593 4.10397 3.23393C3.83617 2.57274 3.48968 1.94622 3.07197 1.36793C2.86197 1.00793 2.88597 0.851933 3.10797 0.593933C3.40797 0.239933 3.49197 -0.246067 3.85197 -0.606067C3.89706 -0.668044 3.95617 -0.718478 4.02447 -0.753252C4.09277 -0.788025 4.16833 -0.806152 4.24497 -0.806152C4.32162 -0.806152 4.39717 -0.788025 4.46548 -0.753252C4.53378 -0.718478 4.59288 -0.668044 4.63797 -0.606067C4.95517 -0.156673 5.24374 0.312255 5.50197 0.797933C5.58464 0.681306 5.62904 0.541884 5.62904 0.398933C5.62904 0.255982 5.58464 0.11656 5.50197 -6.66976e-05C5.39997 -0.132067 5.31597 -0.288067 5.39997 -0.336067C5.57397 -0.468067 5.57397 -0.780067 5.86797 -0.768067H6.14997C19.418 -0.768067 32.684 -0.768067 45.948 -0.768067C47.118 -0.768067 47.886 -0.252067 48.15 0.707933C48.1909 0.860528 48.2111 1.01795 48.21 1.17593C48.21 6.12793 48.21 11.0799 48.21 16.0319C48.2129 16.0799 48.2129 16.128 48.21 16.1759C47.9622 16.3152 47.673 16.362 47.394 16.3079H6.63597C6.33734 16.3271 6.0375 16.313 5.74197 16.2659C5.58284 16.1205 5.46431 15.9361 5.39803 15.731C5.33176 15.5258 5.32002 15.307 5.36397 15.0959C5.29997 14.6199 5.10467 14.1712 4.79997 13.7999C4.64397 13.7039 4.60197 13.8419 4.54797 13.9199C4.21197 14.4119 3.94797 14.9459 3.65997 15.4619C3.43797 15.8519 3.88797 16.5059 4.34397 16.5179C3.86997 16.2239 3.85197 16.1279 4.18797 15.6539C4.72197 14.8919 4.70997 14.9039 5.27397 15.6539C5.44197 15.8819 5.47197 16.1759 5.65797 16.3919C5.71306 16.5208 5.7348 16.6614 5.72116 16.8009C5.70753 16.9404 5.65897 17.0742 5.57997 17.1899Z" fill="#C7483D"/>
<path d="M5.58 17.1899V16.3319C5.538 16.2659 5.532 16.2059 5.622 16.1699H48.174C48.174 18.4079 48.174 20.6459 48.174 22.8839C48.1493 23.3901 47.9303 23.8672 47.5626 24.2159C47.1948 24.5646 46.7068 24.7581 46.2 24.7559C46.062 24.7559 45.918 24.7559 45.774 24.7559H6.156C5.598 24.7559 5.4 24.4919 5.556 23.9579C5.6189 23.6642 5.63107 23.3618 5.592 23.0639C5.53466 23.0018 5.50281 22.9204 5.50281 22.8359C5.50281 22.7514 5.53466 22.67 5.592 22.6079V21.8399C5.53254 21.7729 5.49969 21.6865 5.49969 21.5969C5.49969 21.5074 5.53254 21.4209 5.592 21.3539V20.1539C5.53424 20.0909 5.5022 20.0084 5.5022 19.9229C5.5022 19.8374 5.53424 19.755 5.592 19.6919L5.58 17.1899Z" fill="#50B373"/>
<path d="M5.57996 22.614V23.07C5.28596 23.148 5.20796 23.472 5.14796 23.67C5.01596 24.048 4.61996 24.27 4.59596 24.69C4.59596 24.798 3.93596 24.834 3.90596 24.72C3.74396 24.174 3.30596 23.784 3.11396 23.256C3.04796 23.07 2.68196 22.986 2.87996 22.746C2.98252 22.5891 3.07666 22.4269 3.16196 22.26C3.54921 21.7725 3.86257 21.2307 4.09196 20.652C4.14596 20.502 4.30796 20.49 4.33796 20.586C4.54973 21.088 4.81314 21.5665 5.12396 22.014C5.20355 22.2599 5.36434 22.4715 5.57996 22.614Z" fill="#C7483E"/>
<path d="M-0.096026 22.854C-0.162026 22.602 0.101974 22.5 0.185974 22.332C0.541863 21.7694 0.864417 21.1864 1.15197 20.586C1.18797 20.484 1.35597 20.49 1.36797 20.586C1.48324 20.971 1.67281 21.3298 1.92597 21.642C2.0744 22.0102 2.29237 22.3463 2.56797 22.632C2.59748 22.6584 2.62109 22.6908 2.63725 22.727C2.65341 22.7632 2.66176 22.8024 2.66176 22.842C2.66176 22.8816 2.65341 22.9208 2.63725 22.957C2.62109 22.9932 2.59748 23.0255 2.56797 23.052C2.20958 23.502 1.89985 23.9887 1.64397 24.504C1.50597 24.702 1.43397 24.702 1.26597 24.666C0.737974 24.558 0.623974 24.066 0.347974 23.712C0.191974 23.514 0.185974 23.214 -0.054026 23.07C-0.108026 23.01 -0.090026 22.932 -0.096026 22.854Z" fill="#C7483E"/>
<path d="M2.65202 1.06201C2.56202 1.22401 2.42402 1.41001 2.31602 1.60201C2.02202 2.14201 1.63802 2.63401 1.39202 3.20401C1.33802 3.33001 1.20002 3.38401 1.16402 3.24001C1.02557 2.91633 0.852565 2.60854 0.648022 2.32201C0.444022 1.93801 0.216022 1.56601 2.1711e-05 1.20001C-0.215978 0.834011 0.186022 0.696011 0.228022 0.408011C0.322552 0.147349 0.471914 -0.0899934 0.666022 -0.287989C0.756774 -0.416857 0.878599 -0.52072 1.0202 -0.589946C1.1618 -0.659173 1.31859 -0.69152 1.47602 -0.683989C1.66802 -0.683989 1.79402 -0.419989 1.92002 -0.215989C2.06684 0.145275 2.26929 0.48134 2.52002 0.780011C2.64002 0.858011 2.64602 0.930011 2.65202 1.06201Z" fill="#C7483E"/>
<path d="M2.05801 20.9999C1.90801 20.9999 1.88401 20.9159 1.88401 20.8379C1.88031 20.7783 1.86394 20.7202 1.83601 20.6674C1.80807 20.6147 1.76921 20.5685 1.72201 20.5319C1.63745 20.4565 1.56979 20.3641 1.52346 20.2607C1.47713 20.1573 1.45319 20.0452 1.45319 19.9319C1.45319 19.8186 1.47713 19.7066 1.52346 19.6032C1.56979 19.4998 1.63745 19.4073 1.72201 19.3319C1.73563 19.3273 1.75038 19.3273 1.76401 19.3319C2.03401 19.3319 1.72201 18.7319 2.12401 18.9779C2.23982 19.1164 2.33297 19.2723 2.40001 19.4399C2.43601 19.5419 2.40001 19.6379 2.55601 19.6859C2.59168 19.7016 2.62314 19.7254 2.64778 19.7556C2.67242 19.7858 2.68955 19.8214 2.69775 19.8594C2.70595 19.8975 2.705 19.937 2.69496 19.9746C2.68492 20.0123 2.66608 20.047 2.64001 20.0759C2.39839 20.2789 2.23329 20.5583 2.17201 20.8679C2.13001 20.9339 2.08801 20.9999 2.05801 20.9999Z" fill="#C84B41"/>
<path d="M5.57998 19.674V20.136C5.36551 20.3056 5.20329 20.5323 5.11198 20.79C5.11198 20.856 5.11198 20.952 5.00398 20.964C4.98819 20.9675 4.97187 20.9678 4.95598 20.9648C4.9401 20.9618 4.92498 20.9557 4.91153 20.9467C4.89808 20.9378 4.88658 20.9262 4.87772 20.9126C4.86886 20.8991 4.86283 20.884 4.85998 20.868C4.75777 20.5757 4.59872 20.3066 4.39198 20.076C4.19998 19.746 4.64398 19.56 4.72198 19.278C4.72198 19.236 4.82998 19.188 4.84198 19.104C4.85398 19.02 4.81198 18.852 4.96798 18.84C5.12398 18.828 5.05198 19.062 5.12398 19.11C5.33398 19.254 5.29198 19.596 5.57998 19.674Z" fill="#C84A40"/>
<path d="M2.66999 3.90593C2.60399 4.16993 2.35799 4.30193 2.29799 4.55993C2.29799 4.64393 2.18999 4.77593 2.14799 4.90193C2.10599 5.02793 1.89599 5.02193 1.90799 4.93193C1.95599 4.65593 1.71599 4.54193 1.60799 4.40993C1.09799 3.80993 1.85999 3.44993 1.90199 2.95793C1.90199 2.87993 2.08199 2.87393 2.09399 2.92193C2.21508 3.28659 2.41131 3.62181 2.66999 3.90593Z" fill="#C84B40"/>
<path d="M0.59997 18.8399C0.71997 18.9899 0.69597 19.2479 0.88797 19.4399C0.95997 19.4999 1.00197 19.6439 1.09797 19.7459C1.39797 20.0759 0.80997 20.2079 0.87597 20.5079C0.56997 20.5079 0.79797 20.9579 0.55797 20.9819C0.31797 21.0059 0.41397 20.6699 0.25797 20.5139C-0.20403 20.0399 -0.18003 19.8659 0.25797 19.3139C0.347448 19.2203 0.404276 19.1004 0.41997 18.9719C0.38397 18.8819 0.43197 18.8219 0.59997 18.8399Z" fill="#C8493E"/>
<path d="M4.16397 19.866C4.00797 20.124 3.88797 20.328 3.76197 20.526C3.76197 20.526 3.76197 20.526 3.71997 20.526C3.63779 20.5663 3.54749 20.5872 3.45597 20.5872C3.36446 20.5872 3.27415 20.5663 3.19197 20.526C3.10472 20.4478 3.03493 20.3521 2.98715 20.2451C2.93937 20.1381 2.91467 20.0222 2.91467 19.905C2.91467 19.7878 2.93937 19.672 2.98715 19.565C3.03493 19.458 3.10472 19.3622 3.19197 19.284C3.23997 19.23 3.31797 19.206 3.33597 19.122C3.35397 19.038 3.33597 18.864 3.45597 18.858C3.57597 18.852 3.52797 19.086 3.59997 19.134C3.91197 19.32 3.87597 19.698 4.16397 19.866Z" fill="#C84A40"/>
<path d="M1.19998 3.89999C1.06798 4.14599 0.971982 4.36799 0.833982 4.57199C0.563982 4.96799 0.545982 4.96199 0.269982 4.57199C0.149503 4.39462 0.0469969 4.20569 -0.0360182 4.00799C-0.144018 3.75599 0.149982 3.49799 0.299982 3.34799C0.449982 3.19799 0.251982 2.86199 0.575982 2.90399C0.809982 2.90399 0.623982 3.21599 0.821982 3.34799C1.01998 3.47999 0.995982 3.74399 1.19998 3.89999Z" fill="#C7493E"/>
<path d="M3.46802 2.90991C3.54002 2.90991 3.57602 2.90991 3.60602 3.00591C3.73471 3.28338 3.88518 3.55022 4.05602 3.80391C4.23602 4.11591 3.79802 4.29591 3.78602 4.58991H3.74402C3.49202 4.58991 3.74402 5.06991 3.46802 4.95591C3.37432 4.88335 3.29587 4.79299 3.23718 4.69002C3.17849 4.58706 3.14071 4.47351 3.12602 4.35591C3.09002 4.14591 2.67602 4.07991 2.88002 3.89391C3.08402 3.70791 3.01802 3.40191 3.27602 3.29391C3.53402 3.18591 3.28202 2.99991 3.46802 2.90991Z" fill="#C8493F"/>
<path d="M2.92198 5.39987C2.84998 5.56187 3.01798 5.83187 2.75998 5.84387C2.50198 5.85587 2.63398 5.59787 2.63398 5.47187C2.63398 5.34587 2.52598 5.05187 2.74198 5.02787C2.95798 5.00387 2.82598 5.27387 2.92198 5.39987Z" fill="#D06558"/>
<path d="M2.91597 2.47203C2.84997 2.61603 3.01797 2.89203 2.75997 2.88603C2.50197 2.88003 2.63997 2.61003 2.63397 2.46603C2.62797 2.32203 2.53197 2.08203 2.74197 2.07603C2.95197 2.07003 2.84997 2.33403 2.91597 2.47203Z" fill="#D06558"/>
<path d="M2.89801 21.348C2.83201 21.51 2.98201 21.786 2.74201 21.786C2.50201 21.786 2.64001 21.528 2.64001 21.39C2.64001 21.252 2.54401 21 2.74201 21C2.94001 21 2.80201 21.246 2.89801 21.348Z" fill="#C84C42"/>
<path d="M2.89797 24.2878C2.83197 24.4498 2.98197 24.7138 2.74797 24.7258C2.51397 24.7378 2.63997 24.4738 2.64597 24.3418C2.65197 24.2098 2.54397 23.9338 2.75997 23.9278C2.97597 23.9218 2.81397 24.1798 2.89797 24.2878Z" fill="#C84C41"/>
<path d="M2.89201 18.4078C2.83201 18.5638 2.97601 18.8158 2.74201 18.8038C2.50801 18.7918 2.64601 18.5458 2.64601 18.4078C2.64601 18.2698 2.56201 18.0598 2.74201 18.0598C2.92201 18.0598 2.80201 18.3178 2.89201 18.4078Z" fill="#C7483D"/>
<path d="M2.20612e-05 21.3718C0.138022 21.3718 0.192022 21.4258 0.186022 21.5338C0.180022 21.6418 0.222022 21.8038 0.0420221 21.8218C-0.137978 21.8398 -0.101978 21.7198 -0.0959779 21.5998C-0.0899779 21.4798 -0.149978 21.4018 2.20612e-05 21.3718Z" fill="#CF5F55"/>
<path d="M0.179978 8.56195C0.179978 8.70595 0.179978 8.80195 0.0119779 8.78995C-0.156022 8.77795 -0.102022 8.66995 -0.102022 8.57995C-0.102022 8.48995 -0.102022 8.34595 0.0359779 8.34595C0.173978 8.34595 0.191978 8.46595 0.179978 8.56195Z" fill="#D1685D"/>
<path d="M0.0299968 5.8439C-0.138003 5.8439 -0.0960032 5.7059 -0.102003 5.6039C-0.108003 5.5019 -0.0960032 5.3999 0.0359968 5.3999C0.167997 5.3999 0.179997 5.5319 0.179997 5.6459C0.179997 5.7599 0.155997 5.8379 0.0299968 5.8439Z" fill="#D1685D"/>
<path d="M0.18001 15.3C0.18001 15.402 0.18001 15.492 0.0480102 15.498C-0.0839897 15.504 -0.10199 15.378 -0.10199 15.276C-0.10199 15.174 -0.10199 15.066 0.0240103 15.072C0.15001 15.078 0.18601 15.186 0.18001 15.3Z" fill="#D1685D"/>
<path d="M0.179978 18.24C0.179978 18.36 0.179978 18.456 0.0119779 18.444C-0.156022 18.432 -0.102022 18.324 -0.102022 18.24C-0.102022 18.156 -0.102022 18 0.0359779 18.006C0.173978 18.012 0.185978 18.126 0.179978 18.24Z" fill="#D1685D"/>
<path d="M0.179981 2.238C0.179981 2.352 0.179981 2.472 0.0359813 2.484C-0.108019 2.496 -0.102019 2.4 -0.102019 2.286C-0.102019 2.172 -0.138019 2.052 0.0359813 2.052C0.209981 2.052 0.185981 2.136 0.179981 2.238Z" fill="#D1685D"/>
<path d="M5.58002 21.3539V21.8399C5.40002 21.8399 5.33402 21.7619 5.32802 21.5939C5.32202 21.4259 5.40002 21.3419 5.58002 21.3539Z" fill="#D36D61"/>
<path d="M2.76598 8.80786C3.15598 9.49186 3.52798 10.1939 3.96598 10.8539C4.05007 10.9731 4.09418 11.116 4.09198 11.2619C4.09198 11.6519 4.09198 12.0479 4.09198 12.4619C4.08255 12.8255 3.93695 13.1724 3.68398 13.4339C3.45174 13.7268 3.26374 14.0523 3.12598 14.3999C3.04198 14.6399 2.69998 14.7239 2.77198 15.0479C2.54841 14.7348 2.34788 14.406 2.17198 14.0639C1.97933 13.6897 1.76496 13.327 1.52998 12.9779C1.44275 12.8245 1.39917 12.6502 1.40398 12.4739C1.40398 12.1319 1.40398 11.7779 1.40398 11.4359C1.40721 11.0768 1.54909 10.7328 1.79998 10.4759C2.03962 10.1627 2.22983 9.81466 2.36398 9.44386C2.42998 9.17986 2.87998 9.17386 2.76598 8.80786Z" fill="#FFFEFE"/>
<path d="M4.73998 10.5119C4.44367 9.87461 4.07956 9.27113 3.65398 8.71186C3.32998 8.33986 3.42598 7.91386 3.76198 7.51186C3.94198 7.29586 3.99598 7.00186 4.36198 7.10386C4.48198 7.13986 4.57198 7.15186 4.57798 7.29586C4.58398 7.43986 4.51198 7.47586 4.38598 7.51186C3.98398 7.61386 4.04998 7.60186 4.24198 7.96186C4.35598 8.18386 4.56598 8.37586 4.58998 8.65186C4.58998 8.71786 4.62598 8.77186 4.69798 8.77786C4.76998 8.78386 4.82398 8.77786 4.83598 8.68186C4.90798 8.27386 5.30398 8.03386 5.37598 7.62586C5.38516 7.60713 5.39864 7.59084 5.41533 7.57832C5.43201 7.56581 5.45143 7.55743 5.47198 7.55386C5.50798 7.55386 5.57398 7.60186 5.56798 7.62586C5.53798 7.87186 5.72398 8.16586 5.44798 8.36386C5.30998 8.45986 5.30398 8.65186 5.36398 8.68786C5.92798 9.03586 5.36398 9.32986 5.25598 9.53986C5.14198 9.84586 4.91398 10.1339 4.73998 10.5119Z" fill="#FFFEFE"/>
<path d="M5.62202 16.2L5.58002 16.362C5.22602 16.362 5.49002 15.834 5.12402 15.852C5.12402 15.54 4.85402 15.384 4.75802 15.126C4.54449 15.3173 4.39739 15.5716 4.33802 15.852C4.33802 15.882 4.24202 15.912 4.18802 15.936C4.13402 15.96 4.09202 16.116 4.09202 16.224C4.09202 16.332 4.21202 16.38 4.32602 16.38C4.44002 16.38 4.61402 16.38 4.59602 16.59C4.57802 16.8 4.41602 16.746 4.29002 16.776C3.79802 16.914 3.77402 16.41 3.64802 16.212C3.30602 15.702 3.42002 15.702 3.79802 15.09C4.02059 14.7776 4.20396 14.4391 4.34402 14.082C4.41602 13.866 4.71602 13.794 4.65002 13.482C4.65002 13.428 4.79402 13.404 4.82402 13.482C5.01061 13.9429 5.26767 14.3721 5.58602 14.754C5.59619 14.7756 5.60145 14.7992 5.60145 14.823C5.60145 14.8469 5.59619 14.8704 5.58602 14.892C5.09402 15.33 5.79602 15.744 5.62202 16.2Z" fill="#FFFEFD"/>
<path d="M5.59802 13.3798C5.23202 12.9418 4.99802 12.4978 4.69202 12.0838C4.38602 11.6698 4.88402 11.6098 4.95602 11.3578C5.08445 11.0967 5.23289 10.846 5.40002 10.6078C5.40002 10.5478 5.44202 10.4878 5.52002 10.4938C5.59802 10.4998 5.61602 10.5658 5.61602 10.6258L5.59802 13.3798Z" fill="#FFFDFD"/>
<path d="M2.74197 12.5578C2.74197 12.9118 2.30997 13.0198 2.35797 13.3618C2.3215 13.3827 2.27997 13.3931 2.23797 13.3918C2.15997 13.3918 2.15397 13.3198 2.14197 13.2598C2.10995 13.0549 2.12578 12.8454 2.18824 12.6476C2.25069 12.4498 2.35807 12.2692 2.50197 12.1198C2.66997 11.9098 2.64597 11.8978 2.50197 11.7058C2.36308 11.5709 2.25889 11.4045 2.19829 11.2206C2.13769 11.0367 2.12248 10.8409 2.15397 10.6498C2.15397 10.5778 2.15397 10.4878 2.27997 10.4878C2.40597 10.4878 2.38197 10.5298 2.38197 10.5478C2.33997 10.8658 2.83797 10.9198 2.72997 11.2978C2.78397 10.9978 3.10797 10.8958 3.13197 10.6078C3.12943 10.5924 3.1301 10.5766 3.13394 10.5614C3.13777 10.5462 3.14469 10.532 3.15426 10.5196C3.16382 10.5073 3.17584 10.497 3.18955 10.4894C3.20327 10.4819 3.21839 10.4773 3.23397 10.4758C3.29397 10.4758 3.38397 10.4758 3.38397 10.5478C3.38397 10.8058 3.52797 11.0818 3.26997 11.3218C3.10877 11.4774 3.01429 11.6895 3.00645 11.9133C2.99862 12.1372 3.07804 12.3554 3.22797 12.5218C3.58197 12.7678 3.32997 13.0558 3.39597 13.3138C3.39597 13.3738 3.34197 13.4158 3.26997 13.4158C3.19797 13.4158 3.13197 13.4158 3.13797 13.3198C3.14997 12.9958 2.74197 12.8938 2.74197 12.5578Z" fill="#C84B40"/>
<path d="M3.88201 11.8979C3.88201 12.0059 3.88201 12.1379 3.73801 12.1379C3.59401 12.1379 3.60001 12.0419 3.60001 11.9399C3.60001 11.8379 3.60001 11.7119 3.74401 11.7119C3.88801 11.7119 3.88801 11.7959 3.88201 11.8979Z" fill="#CD594D"/>
<path d="M1.8 12.1379C1.644 12.1379 1.596 12.0719 1.596 11.9639C1.596 11.8559 1.56 11.7359 1.722 11.7119C1.884 11.6879 1.878 11.7719 1.878 11.8799C1.878 11.9879 1.92 12.0959 1.8 12.1379Z" fill="#D1685D"/>
<path d="M2.74201 14.2499C2.59801 14.2199 2.63401 14.0939 2.62801 13.9979C2.62201 13.9019 2.62801 13.7999 2.74801 13.7939C2.86801 13.7879 2.91001 13.9079 2.90401 14.0159C2.89801 14.1239 2.89801 14.2379 2.74201 14.2499Z" fill="#D36D61"/>
</g>
</g>
<rect x="0.5" y="0.5" width="23" height="23" rx="11.5" stroke="#9B9B9B"/>
<defs>
<clipPath id="clip0_103_5156">
<rect width="24" height="24" rx="12" fill="white"/>
</clipPath>
</defs>
</svg>
