<svg width="24" height="24" viewBox="0 0 24 24" fill="none" xmlns="http://www.w3.org/2000/svg">
<g clip-path="url(#clip0_103_5205)">
<mask id="mask0_103_5205" style="mask-type:luminance" maskUnits="userSpaceOnUse" x="0" y="0" width="24" height="24">
<path d="M12 24C18.6274 24 24 18.6274 24 12C24 5.37258 18.6274 0 12 0C5.37258 0 0 5.37258 0 12C0 18.6274 5.37258 24 12 24Z" fill="white"/>
</mask>
<g mask="url(#mask0_103_5205)">
<path d="M-11.868 16.332C-11.868 13.532 -11.868 10.732 -11.868 7.932C-11.868 7.698 -11.778 7.632 -11.568 7.656H-11.286C4.25002 7.656 19.782 7.656 35.31 7.656C35.766 7.656 35.91 7.734 35.91 8.256C35.874 10.956 35.91 13.656 35.88 16.35C35.7461 16.4614 35.5735 16.5153 35.4 16.5C35.244 16.5 35.088 16.5 34.932 16.5H-10.92C-11.238 16.482 -11.58 16.566 -11.868 16.332Z" fill="#016B45"/>
<path d="M-11.868 16.332H35.856C35.856 18.468 35.856 20.604 35.856 22.74C35.8213 23.2266 35.6043 23.6823 35.2484 24.0159C34.8925 24.3496 34.4239 24.5367 33.936 24.54H-9.59998C-10.764 24.54 -11.52 24.042 -11.79 23.088C-11.8298 22.9699 -11.852 22.8466 -11.856 22.722C-11.864 20.598 -11.868 18.468 -11.868 16.332Z" fill="#C3262F"/>
<path d="M-11.862 7.66796H35.862C35.862 5.53196 35.862 3.39596 35.862 1.25996C35.8259 0.773851 35.6086 0.319036 35.2529 -0.014349C34.8973 -0.347734 34.4295 -0.535359 33.942 -0.540039H-9.59997C-10.764 -0.540039 -11.514 -0.0420391 -11.784 0.911961C-11.8238 1.03007 -11.846 1.15339 -11.85 1.27796C-11.866 3.40196 -11.87 5.53196 -11.862 7.66796Z" fill="#FDB813"/>
</g>
</g>
<rect x="0.5" y="0.5" width="23" height="23" rx="11.5" stroke="#9B9B9B"/>
<defs>
<clipPath id="clip0_103_5205">
<rect width="24" height="24" rx="12" fill="white"/>
</clipPath>
</defs>
</svg>
