<svg width="24" height="24" viewBox="0 0 24 24" fill="none" xmlns="http://www.w3.org/2000/svg">
<g clip-path="url(#clip0_103_5196)">
<mask id="mask0_103_5196" style="mask-type:luminance" maskUnits="userSpaceOnUse" x="0" y="0" width="24" height="24">
<path d="M12 24C18.6274 24 24 18.6274 24 12C24 5.37258 18.6274 0 12 0C5.37258 0 0 5.37258 0 12C0 18.6274 5.37258 24 12 24Z" fill="white"/>
</mask>
<g mask="url(#mask0_103_5196)">
<path d="M12 12C19.344 12 26.686 12 34.026 12C34.452 12 34.554 12.102 34.554 12.528C34.554 15.696 34.554 18.87 34.554 22.038C34.5653 22.284 34.5274 22.5297 34.4427 22.7609C34.3579 22.9921 34.228 23.204 34.0604 23.3844C33.8929 23.5649 33.691 23.7101 33.4667 23.8117C33.2424 23.9132 33.0002 23.9691 32.754 23.976C32.652 23.976 32.55 23.976 32.448 23.976H-8.39997C-9.49797 23.976 -10.2 23.508 -10.47 22.614C-10.5169 22.4421 -10.5371 22.264 -10.53 22.086C-10.53 18.876 -10.53 15.66 -10.53 12.45C-10.53 12.054 -10.392 12.006 -10.05 12.006L12 12Z" fill="#C7483D"/>
<path d="M12 11.9999C19.344 11.9999 26.686 11.9999 34.026 11.9999C34.452 11.9999 34.554 11.8979 34.554 11.4719C34.554 8.30393 34.554 5.12993 34.554 1.96193C34.5653 1.71596 34.5274 1.47022 34.4427 1.23904C34.3579 1.00787 34.228 0.795887 34.0604 0.615477C33.8929 0.435067 33.691 0.289841 33.4667 0.188276C33.2424 0.0867104 33.0002 0.03084 32.754 0.0239258H-8.39997C-9.49797 0.0239258 -10.2 0.491926 -10.47 1.38593C-10.5169 1.55782 -10.5371 1.73589 -10.53 1.91393C-10.53 5.12393 -10.53 8.33992 -10.53 11.5499C-10.53 11.9459 -10.392 11.9939 -10.05 11.9939L12 11.9999Z" fill="white"/>
</g>
</g>
<rect x="0.5" y="0.5" width="23" height="23" rx="11.5" stroke="#9B9B9B"/>
<defs>
<clipPath id="clip0_103_5196">
<rect width="24" height="24" rx="12" fill="white"/>
</clipPath>
</defs>
</svg>
